{
  "accessors": [
    {
      "bufferView": 2,
      "componentType": 5126,
      "count": 2690,
      "max": [
        0.2566193640232086,
        0.27144888043403625,
        0.665850043296814
      ],
      "min": [
        0.18198345601558685,
        0.19686320424079895,
        0.4685039520263672
      ],
      "type": "VEC3"
    },
    {
      "bufferView": 2,
      "byteOffset": 32280,
      "componentType": 5126,
      "count": 2690,
      "max": [
        1.0,
        1.0,
        1.0
      ],
      "min": [
        -0.9992789030075073,
        -0.9988483190536499,
        -0.9773731231689453
      ],
      "type": "VEC3"
    },
    {
      "bufferView": 1,
      "componentType": 5126,
      "count": 2690,
      "max": [
        0.7857019901275635,
        0.989654004573822
      ],
      "min": [
        0.28279998898506165,
        0.006206999998539686
      ],
      "type": "VEC2"
    },
    {
      "bufferView": 0,
      "componentType": 5125,
      "count": 16128,
      "type": "SCALAR"
    }
  ],
  "asset": {
    "extras": {
      "author": "rfrick (https://sketchfab.com/rfrick)",
      "license": "CC-BY-4.0 (http://creativecommons.org/licenses/by/4.0/)",
      "source": "https://sketchfab.com/3d-models/rain-drop-single-ac5f6615813148dea0ab0be5119666db",
      "title": "Rain Drop (single)"
    },
    "generator": "Sketchfab-12.67.0",
    "version": "2.0"
  },
  "bufferViews": [
    {
      "buffer": 0,
      "byteLength": 64512,
      "name": "floatBufferViews",
      "target": 34963
    },
    {
      "buffer": 0,
      "byteLength": 21520,
      "byteOffset": 64512,
      "byteStride": 8,
      "name": "floatBufferViews",
      "target": 34962
    },
    {
      "buffer": 0,
      "byteLength": 64560,
      "byteOffset": 86032,
      "byteStride": 12,
      "name": "floatBufferViews",
      "target": 34962
    }
  ],
  "buffers": [
    {
      "byteLength": 150592,
      "uri": "scene.bin"
    }
  ],
  "materials": [
    {
      "doubleSided": true,
      "name": "BallCone",
      "pbrMetallicRoughness": {
        "baseColorFactor": [
          0.8,
          0.8,
          0.8,
          1.0
        ],
        "metallicFactor": 0.0,
        "roughnessFactor": 0.6
      }
    }
  ],
  "meshes": [
    {
      "name": "Object_0",
      "primitives": [
        {
          "attributes": {
            "NORMAL": 1,
            "POSITION": 0,
            "TEXCOORD_0": 2
          },
          "indices": 3,
          "material": 0,
          "mode": 4
        }
      ]
    }
  ],
  "nodes": [
    {
      "children": [
        1
      ],
      "matrix": [
        1.0,
        0.0,
        0.0,
        0.0,
        0.0,
        2.220446049250313e-16,
        -1.0,
        0.0,
        0.0,
        1.0,
        2.220446049250313e-16,
        0.0,
        0.0,
        0.0,
        0.0,
        1.0
      ],
      "name": "Sketchfab_model"
    },
    {
      "children": [
        2
      ],
      "name": "20c0b417c815436f8df90933bd947368.3ds"
    },
    {
      "mesh": 0,
      "name": "Object_2"
    }
  ],
  "scene": 0,
  "scenes": [
    {
      "name": "Sketchfab_Scene",
      "nodes": [
        0
      ]
    }
  ]
}
