{"accessors" : [{"bufferView" : 0, "byteOffset" : 0, "componentType" : 5123, "count" : 2880, "type" : "SCALAR", "max" : [558], "min" : [0]}, {"bufferView" : 1, "byteOffset" : 0, "componentType" : 5126, "count" : 559, "type" : "VEC3", "max" : [0, 0, 0], "min" : [0, 0, 0], "name" : "POSITION"}, {"bufferView" : 1, "byteOffset" : 12, "componentType" : 5126, "count" : 559, "type" : "VEC2", "max" : [1, 1], "min" : [0, 0], "name" : "TEXCOORD_0"}, {"bufferView" : 1, "byteOffset" : 20, "componentType" : 5126, "count" : 559, "type" : "VEC3", "max" : [-0, 1.0000044107437134, -0], "min" : [-0, 1.0000044107437134, -0], "name" : "NORMAL"}, {"bufferView" : 0, "byteOffset" : 5760, "componentType" : 5123, "count" : 2880, "type" : "SCALAR", "max" : [558], "min" : [0]}, {"bufferView" : 2, "byteOffset" : 0, "componentType" : 5126, "count" : 559, "type" : "VEC3", "max" : [0.9825220108032227, 1.5794990062713623, 0.8964769840240479], "min" : [-0.9347500205039978, -0.17064400017261505, -0.9790549874305725], "name" : "POSITION"}, {"bufferView" : 2, "byteOffset" : 12, "componentType" : 5126, "count" : 559, "type" : "VEC2", "max" : [1, 1], "min" : [0, 0], "name" : "TEXCOORD_0"}, {"bufferView" : 2, "byteOffset" : 20, "componentType" : 5126, "count" : 559, "type" : "VEC3", "max" : [1.0000044107437134, 1.0000044107437134, 1.0000044107437134], "min" : [-1.0000044107437134, -1.0000044107437134, -1.0000044107437134], "name" : "NORMAL"}, {"bufferView" : 0, "byteOffset" : 11520, "componentType" : 5123, "count" : 2880, "type" : "SCALAR", "max" : [624], "min" : [0]}, {"bufferView" : 3, "byteOffset" : 0, "componentType" : 5126, "count" : 625, "type" : "VEC3", "max" : [0.3858169913291931, 3.4814600944519043, -0.5470539927482605], "min" : [-0.08740600198507309, 0.7868239879608154, -3.82928204536438], "name" : "POSITION"}, {"bufferView" : 3, "byteOffset" : 12, "componentType" : 5126, "count" : 625, "type" : "VEC2", "max" : [1, 1], "min" : [0, 0], "name" : "TEXCOORD_0"}, {"bufferView" : 3, "byteOffset" : 20, "componentType" : 5126, "count" : 625, "type" : "VEC3", "max" : [0.9999923706054688, 0.9913374781608582, 0.9961392879486084], "min" : [-0.9999923706054688, -0.9913374781608582, -0.9961392879486084], "name" : "NORMAL"}, {"bufferView" : 0, "byteOffset" : 17280, "componentType" : 5123, "count" : 2880, "type" : "SCALAR", "max" : [624], "min" : [0]}, {"bufferView" : 4, "byteOffset" : 0, "componentType" : 5126, "count" : 625, "type" : "VEC3", "max" : [0.3858169913291931, 0.3772439956665039, 3.5375850200653076], "min" : [-0.08740600198507309, -2.1246860027313232, 0.10201399773359299], "name" : "POSITION"}, {"bufferView" : 4, "byteOffset" : 12, "componentType" : 5126, "count" : 625, "type" : "VEC2", "max" : [1, 1], "min" : [0, 0], "name" : "TEXCOORD_0"}, {"bufferView" : 4, "byteOffset" : 20, "componentType" : 5126, "count" : 625, "type" : "VEC3", "max" : [0.9999921917915344, 0.982221782207489, 0.989828884601593], "min" : [-0.9999921917915344, -0.982221782207489, -0.989828884601593], "name" : "NORMAL"}, {"bufferView" : 0, "byteOffset" : 23040, "componentType" : 5123, "count" : 2880, "type" : "SCALAR", "max" : [624], "min" : [0]}, {"bufferView" : 5, "byteOffset" : 0, "componentType" : 5126, "count" : 625, "type" : "VEC3", "max" : [0.3858169913291931, 2.1938319206237793, 4.269354820251465], "min" : [-0.08740600198507309, 0.5502489805221558, 0.3437269926071167], "name" : "POSITION"}, {"bufferView" : 5, "byteOffset" : 12, "componentType" : 5126, "count" : 625, "type" : "VEC2", "max" : [1, 1], "min" : [0, 0], "name" : "TEXCOORD_0"}, {"bufferView" : 5, "byteOffset" : 20, "componentType" : 5126, "count" : 625, "type" : "VEC3", "max" : [0.9999926686286926, 0.9981616139411926, 0.9308668375015259], "min" : [-0.9999926686286926, -0.9981616139411926, -0.9308668375015259], "name" : "NORMAL"}, {"bufferView" : 0, "byteOffset" : 28800, "componentType" : 5123, "count" : 2880, "type" : "SCALAR", "max" : [624], "min" : [0]}, {"bufferView" : 6, "byteOffset" : 0, "componentType" : 5126, "count" : 625, "type" : "VEC3", "max" : [0.3858169913291931, 0.4650390148162842, -0.3286300003528595], "min" : [-0.08740600198507309, -1.6285860538482666, -4.032357215881348], "name" : "POSITION"}, {"bufferView" : 6, "byteOffset" : 12, "componentType" : 5126, "count" : 625, "type" : "VEC2", "max" : [1, 1], "min" : [0, 0], "name" : "TEXCOORD_0"}, {"bufferView" : 6, "byteOffset" : 20, "componentType" : 5126, "count" : 625, "type" : "VEC3", "max" : [0.9999921917915344, 0.9838480353355408, 0.9669692516326904], "min" : [-0.9999921917915344, -0.9838480353355408, -0.9669692516326904], "name" : "NORMAL"}, {"bufferView" : 0, "byteOffset" : 34560, "componentType" : 5123, "count" : 2880, "type" : "SCALAR", "max" : [624], "min" : [0]}, {"bufferView" : 7, "byteOffset" : 0, "componentType" : 5126, "count" : 625, "type" : "VEC3", "max" : [0.39952701330184937, 4.085896015167236, -2.3024919033050537], "min" : [-0.0029219998978078365, 2.1890931129455566, -2.711827039718628], "name" : "POSITION"}, {"bufferView" : 7, "byteOffset" : 12, "componentType" : 5126, "count" : 625, "type" : "VEC2", "max" : [1, 1], "min" : [0, 0], "name" : "TEXCOORD_0"}, {"bufferView" : 7, "byteOffset" : 20, "componentType" : 5126, "count" : 625, "type" : "VEC3", "max" : [0.9998338222503662, 0.988797128200531, 0.9996471405029297], "min" : [-0.9998338222503662, -0.988797128200531, -0.9996471405029297], "name" : "NORMAL"}, {"bufferView" : 0, "byteOffset" : 40320, "componentType" : 5123, "count" : 2880, "type" : "SCALAR", "max" : [624], "min" : [0]}, {"bufferView" : 8, "byteOffset" : 0, "componentType" : 5126, "count" : 625, "type" : "VEC3", "max" : [0.431894987821579, 2.5099120140075684, -2.4556069374084473], "min" : [0.029440000653266907, 2.1803359985351562, -4.369150161743164], "name" : "POSITION"}, {"bufferView" : 8, "byteOffset" : 12, "componentType" : 5126, "count" : 625, "type" : "VEC2", "max" : [1, 1], "min" : [0, 0], "name" : "TEXCOORD_0"}, {"bufferView" : 8, "byteOffset" : 20, "componentType" : 5126, "count" : 625, "type" : "VEC3", "max" : [0.9998329281806946, 0.999926745891571, 0.997218906879425], "min" : [-0.9998329281806946, -0.999926745891571, -0.997218906879425], "name" : "NORMAL"}, {"bufferView" : 0, "byteOffset" : 46080, "componentType" : 5123, "count" : 2880, "type" : "SCALAR", "max" : [624], "min" : [0]}, {"bufferView" : 9, "byteOffset" : 0, "componentType" : 5126, "count" : 625, "type" : "VEC3", "max" : [0.39952701330184937, 3.0997231006622314, 3.300031900405884], "min" : [-0.002920999890193343, 1.3333539962768555, 2.504179000854492], "name" : "POSITION"}, {"bufferView" : 9, "byteOffset" : 12, "componentType" : 5126, "count" : 625, "type" : "VEC2", "max" : [1, 1], "min" : [0, 0], "name" : "TEXCOORD_0"}, {"bufferView" : 9, "byteOffset" : 20, "componentType" : 5126, "count" : 625, "type" : "VEC3", "max" : [0.9998329877853394, 0.9913352131843567, 0.9997353553771973], "min" : [-0.9998329877853394, -0.9913352131843567, -0.9997353553771973], "name" : "NORMAL"}, {"bufferView" : 0, "byteOffset" : 51840, "componentType" : 5123, "count" : 2880, "type" : "SCALAR", "max" : [624], "min" : [0]}, {"bufferView" : 10, "byteOffset" : 0, "componentType" : 5126, "count" : 625, "type" : "VEC3", "max" : [0.42844200134277344, 1.4860639572143555, 4.532702922821045], "min" : [0.02599399909377098, 0.9313989877700806, 2.6738839149475098], "name" : "POSITION"}, {"bufferView" : 10, "byteOffset" : 12, "componentType" : 5126, "count" : 625, "type" : "VEC2", "max" : [1, 1], "min" : [0, 0], "name" : "TEXCOORD_0"}, {"bufferView" : 10, "byteOffset" : 20, "componentType" : 5126, "count" : 625, "type" : "VEC3", "max" : [0.9998326897621155, 0.999872624874115, 0.9690014719963074], "min" : [-0.9998326897621155, -0.999872624874115, -0.9690014719963074], "name" : "NORMAL"}, {"bufferView" : 0, "byteOffset" : 57600, "componentType" : 5123, "count" : 2880, "type" : "SCALAR", "max" : [624], "min" : [0]}, {"bufferView" : 11, "byteOffset" : 0, "componentType" : 5126, "count" : 625, "type" : "VEC3", "max" : [0.431894987821579, -0.05419300124049187, -2.3475050926208496], "min" : [0.029440000653266907, -0.8302249908447266, -4.123603820800781], "name" : "POSITION"}, {"bufferView" : 11, "byteOffset" : 12, "componentType" : 5126, "count" : 625, "type" : "VEC2", "max" : [1, 1], "min" : [0, 0], "name" : "TEXCOORD_0"}, {"bufferView" : 11, "byteOffset" : 20, "componentType" : 5126, "count" : 625, "type" : "VEC3", "max" : [0.9998326897621155, 0.999619722366333, 0.9896305203437805], "min" : [-0.9998326897621155, -0.999619722366333, -0.9896305203437805], "name" : "NORMAL"}, {"bufferView" : 0, "byteOffset" : 63360, "componentType" : 5123, "count" : 2880, "type" : "SCALAR", "max" : [624], "min" : [0]}, {"bufferView" : 12, "byteOffset" : 0, "componentType" : 5126, "count" : 625, "type" : "VEC3", "max" : [0.431894987821579, -0.8562120199203491, -2.43178391456604], "min" : [0.029440000653266907, -2.649801015853882, -3.167435884475708], "name" : "POSITION"}, {"bufferView" : 12, "byteOffset" : 12, "componentType" : 5126, "count" : 625, "type" : "VEC2", "max" : [1, 1], "min" : [0, 0], "name" : "TEXCOORD_0"}, {"bufferView" : 12, "byteOffset" : 20, "componentType" : 5126, "count" : 625, "type" : "VEC3", "max" : [0.9998336434364319, 0.9857972264289856, 0.9989151358604431], "min" : [-0.9998336434364319, -0.9857972264289856, -0.9989151358604431], "name" : "NORMAL"}, {"bufferView" : 0, "byteOffset" : 69120, "componentType" : 5123, "count" : 2880, "type" : "SCALAR", "max" : [624], "min" : [0]}, {"bufferView" : 13, "byteOffset" : 0, "componentType" : 5126, "count" : 625, "type" : "VEC3", "max" : [0.431894987821579, -0.8566539883613586, 2.099152088165283], "min" : [0.029440000653266907, -2.7652831077575684, 1.7433120012283325], "name" : "POSITION"}, {"bufferView" : 13, "byteOffset" : 12, "componentType" : 5126, "count" : 625, "type" : "VEC2", "max" : [1, 1], "min" : [0, 0], "name" : "TEXCOORD_0"}, {"bufferView" : 13, "byteOffset" : 20, "componentType" : 5126, "count" : 625, "type" : "VEC3", "max" : [0.9998338222503662, 0.9946571588516235, 0.9998743534088135], "min" : [-0.9998338222503662, -0.9946571588516235, -0.9998743534088135], "name" : "NORMAL"}, {"bufferView" : 0, "byteOffset" : 74880, "componentType" : 5123, "count" : 2880, "type" : "SCALAR", "max" : [624], "min" : [0]}, {"bufferView" : 14, "byteOffset" : 0, "componentType" : 5126, "count" : 625, "type" : "VEC3", "max" : [0.431894987821579, -0.6788340210914612, 3.807313919067383], "min" : [0.029440000653266907, -1.0190750360488892, 1.8955730199813843], "name" : "POSITION"}, {"bufferView" : 14, "byteOffset" : 12, "componentType" : 5126, "count" : 625, "type" : "VEC2", "max" : [1, 1], "min" : [0, 0], "name" : "TEXCOORD_0"}, {"bufferView" : 14, "byteOffset" : 20, "componentType" : 5126, "count" : 625, "type" : "VEC3", "max" : [0.9998325705528259, 0.9999755024909973, 0.9962793588638306], "min" : [-0.9998325705528259, -0.9999755024909973, -0.9962793588638306], "name" : "NORMAL"}, {"bufferView" : 0, "byteOffset" : 80640, "componentType" : 5123, "count" : 2880, "type" : "SCALAR", "max" : [624], "min" : [0]}, {"bufferView" : 15, "byteOffset" : 0, "componentType" : 5126, "count" : 625, "type" : "VEC3", "max" : [0.43189701437950134, 4.769692897796631, 1.586434006690979], "min" : [0.02253899909555912, 3.4403209686279297, 0.3817789852619171], "name" : "POSITION"}, {"bufferView" : 15, "byteOffset" : 12, "componentType" : 5126, "count" : 625, "type" : "VEC2", "max" : [1, 1], "min" : [0, 0], "name" : "TEXCOORD_0"}, {"bufferView" : 15, "byteOffset" : 20, "componentType" : 5126, "count" : 625, "type" : "VEC3", "max" : [0.9999051094055176, 0.9715240597724915, 0.9805784225463867], "min" : [-0.9999051094055176, -0.9715240597724915, -0.9805784225463867], "name" : "NORMAL"}, {"bufferView" : 0, "byteOffset" : 86400, "componentType" : 5123, "count" : 2880, "type" : "SCALAR", "max" : [624], "min" : [0]}, {"bufferView" : 16, "byteOffset" : 0, "componentType" : 5126, "count" : 625, "type" : "VEC3", "max" : [0.39952701330184937, 4.7076849937438965, 0.38273298740386963], "min" : [-0.002920999890193343, 3.2132019996643066, -0.8529139757156372], "name" : "POSITION"}, {"bufferView" : 16, "byteOffset" : 12, "componentType" : 5126, "count" : 625, "type" : "VEC2", "max" : [1, 1], "min" : [0, 0], "name" : "TEXCOORD_0"}, {"bufferView" : 16, "byteOffset" : 20, "componentType" : 5126, "count" : 625, "type" : "VEC3", "max" : [0.9998337030410767, 0.987657368183136, 0.9827821850776672], "min" : [-0.9998337030410767, -0.987657368183136, -0.9827821850776672], "name" : "NORMAL"}, {"bufferView" : 0, "byteOffset" : 92160, "componentType" : 5123, "count" : 2880, "type" : "SCALAR", "max" : [624], "min" : [0]}, {"bufferView" : 17, "byteOffset" : 0, "componentType" : 5126, "count" : 625, "type" : "VEC3", "max" : [0.3861120045185089, 5.153683185577393, 0.5404819846153259], "min" : [-0.08770100027322769, 0.9214869737625122, -0.08070699870586395], "name" : "POSITION"}, {"bufferView" : 17, "byteOffset" : 12, "componentType" : 5126, "count" : 625, "type" : "VEC2", "max" : [1, 1], "min" : [0, 0], "name" : "TEXCOORD_0"}, {"bufferView" : 17, "byteOffset" : 20, "componentType" : 5126, "count" : 625, "type" : "VEC3", "max" : [0.9999936819076538, 0.9928665161132812, 0.9999851584434509], "min" : [-0.9999936819076538, -0.9928665161132812, -0.9999851584434509], "name" : "NORMAL"}, {"bufferView" : 0, "byteOffset" : 97920, "componentType" : 5123, "count" : 2880, "type" : "SCALAR", "max" : [624], "min" : [0]}, {"bufferView" : 18, "byteOffset" : 0, "componentType" : 5126, "count" : 625, "type" : "VEC3", "max" : [0.431894987821579, -1.7736660242080688, 0.7825149893760681], "min" : [0.029440000653266907, -3.3733530044555664, -0.3084529936313629], "name" : "POSITION"}, {"bufferView" : 18, "byteOffset" : 12, "componentType" : 5126, "count" : 625, "type" : "VEC2", "max" : [1, 1], "min" : [0, 0], "name" : "TEXCOORD_0"}, {"bufferView" : 18, "byteOffset" : 20, "componentType" : 5126, "count" : 625, "type" : "VEC3", "max" : [0.9998337626457214, 0.9976451992988586, 0.9959459900856018], "min" : [-0.9998337626457214, -0.9976451992988586, -0.9959459900856018], "name" : "NORMAL"}, {"bufferView" : 0, "byteOffset" : 103680, "componentType" : 5123, "count" : 2880, "type" : "SCALAR", "max" : [624], "min" : [0]}, {"bufferView" : 19, "byteOffset" : 0, "componentType" : 5126, "count" : 625, "type" : "VEC3", "max" : [0.431894987821579, -1.6861189603805542, -0.27226799726486206], "min" : [0.029440000653266907, -2.8104870319366455, -1.8498239517211914], "name" : "POSITION"}, {"bufferView" : 19, "byteOffset" : 12, "componentType" : 5126, "count" : 625, "type" : "VEC2", "max" : [1, 1], "min" : [0, 0], "name" : "TEXCOORD_0"}, {"bufferView" : 19, "byteOffset" : 20, "componentType" : 5126, "count" : 625, "type" : "VEC3", "max" : [0.9998326897621155, 0.9938251376152039, 0.9960927963256836], "min" : [-0.9998326897621155, -0.9938251376152039, -0.9960927963256836], "name" : "NORMAL"}, {"bufferView" : 0, "byteOffset" : 109440, "componentType" : 5123, "count" : 2880, "type" : "SCALAR", "max" : [624], "min" : [0]}, {"bufferView" : 20, "byteOffset" : 0, "componentType" : 5126, "count" : 625, "type" : "VEC3", "max" : [0.3858169913291931, 0.41536200046539307, 0.007455999962985516], "min" : [-0.08740600198507309, -3.7997701168060303, -0.6070820093154907], "name" : "POSITION"}, {"bufferView" : 20, "byteOffset" : 12, "componentType" : 5126, "count" : 625, "type" : "VEC2", "max" : [1, 1], "min" : [0, 0], "name" : "TEXCOORD_0"}, {"bufferView" : 20, "byteOffset" : 20, "componentType" : 5126, "count" : 625, "type" : "VEC3", "max" : [0.9999922513961792, 0.9930514693260193, 0.9999820590019226], "min" : [-0.9999922513961792, -0.9930527806282043, -0.9999820590019226], "name" : "NORMAL"}], "asset" : {"generator" : "Aspose.3D 24.6.0", "version" : "2.0"}, "buffers" : [{"uri" : "data:application/octet-stream;base64,", "byteLength" : 511060}], "bufferViews" : [{"buffer" : 0, "byteOffset" : 0, "byteLength" : 115200, "target" : 34963}, {"buffer" : 0, "byteOffset" : 115204, "byteLength" : 17888, "byteStride" : 32, "target" : 34962}, {"buffer" : 0, "byteOffset" : 133096, "byteLength" : 17888, "byteStride" : 32, "target" : 34962}, {"buffer" : 0, "byteOffset" : 150988, "byteLength" : 20000, "byteStride" : 32, "target" : 34962}, {"buffer" : 0, "byteOffset" : 170992, "byteLength" : 20000, "byteStride" : 32, "target" : 34962}, {"buffer" : 0, "byteOffset" : 190996, "byteLength" : 20000, "byteStride" : 32, "target" : 34962}, {"buffer" : 0, "byteOffset" : 211000, "byteLength" : 20000, "byteStride" : 32, "target" : 34962}, {"buffer" : 0, "byteOffset" : 231004, "byteLength" : 20000, "byteStride" : 32, "target" : 34962}, {"buffer" : 0, "byteOffset" : 251008, "byteLength" : 20000, "byteStride" : 32, "target" : 34962}, {"buffer" : 0, "byteOffset" : 271012, "byteLength" : 20000, "byteStride" : 32, "target" : 34962}, {"buffer" : 0, "byteOffset" : 291016, "byteLength" : 20000, "byteStride" : 32, "target" : 34962}, {"buffer" : 0, "byteOffset" : 311020, "byteLength" : 20000, "byteStride" : 32, "target" : 34962}, {"buffer" : 0, "byteOffset" : 331024, "byteLength" : 20000, "byteStride" : 32, "target" : 34962}, {"buffer" : 0, "byteOffset" : 351028, "byteLength" : 20000, "byteStride" : 32, "target" : 34962}, {"buffer" : 0, "byteOffset" : 371032, "byteLength" : 20000, "byteStride" : 32, "target" : 34962}, {"buffer" : 0, "byteOffset" : 391036, "byteLength" : 20000, "byteStride" : 32, "target" : 34962}, {"buffer" : 0, "byteOffset" : 411040, "byteLength" : 20000, "byteStride" : 32, "target" : 34962}, {"buffer" : 0, "byteOffset" : 431044, "byteLength" : 20000, "byteStride" : 32, "target" : 34962}, {"buffer" : 0, "byteOffset" : 451048, "byteLength" : 20000, "byteStride" : 32, "target" : 34962}, {"buffer" : 0, "byteOffset" : 471052, "byteLength" : 20000, "byteStride" : 32, "target" : 34962}, {"buffer" : 0, "byteOffset" : 491056, "byteLength" : 20000, "byteStride" : 32, "target" : 34962}], "meshes" : [{"primitives" : [{"attributes" : {"POSITION" : 1, "TEXCOORD_0" : 2, "NORMAL" : 3}, "indices" : 0, "mode" : 4}], "name" : ""}, {"primitives" : [{"attributes" : {"POSITION" : 5, "TEXCOORD_0" : 6, "NORMAL" : 7}, "indices" : 4, "mode" : 4}], "name" : ""}, {"primitives" : [{"attributes" : {"POSITION" : 9, "TEXCOORD_0" : 10, "NORMAL" : 11}, "indices" : 8, "mode" : 4}], "name" : ""}, {"primitives" : [{"attributes" : {"POSITION" : 13, "TEXCOORD_0" : 14, "NORMAL" : 15}, "indices" : 12, "mode" : 4}], "name" : ""}, {"primitives" : [{"attributes" : {"POSITION" : 17, "TEXCOORD_0" : 18, "NORMAL" : 19}, "indices" : 16, "mode" : 4}], "name" : ""}, {"primitives" : [{"attributes" : {"POSITION" : 21, "TEXCOORD_0" : 22, "NORMAL" : 23}, "indices" : 20, "mode" : 4}], "name" : ""}, {"primitives" : [{"attributes" : {"POSITION" : 25, "TEXCOORD_0" : 26, "NORMAL" : 27}, "indices" : 24, "mode" : 4}], "name" : ""}, {"primitives" : [{"attributes" : {"POSITION" : 29, "TEXCOORD_0" : 30, "NORMAL" : 31}, "indices" : 28, "mode" : 4}], "name" : ""}, {"primitives" : [{"attributes" : {"POSITION" : 33, "TEXCOORD_0" : 34, "NORMAL" : 35}, "indices" : 32, "mode" : 4}], "name" : ""}, {"primitives" : [{"attributes" : {"POSITION" : 37, "TEXCOORD_0" : 38, "NORMAL" : 39}, "indices" : 36, "mode" : 4}], "name" : ""}, {"primitives" : [{"attributes" : {"POSITION" : 41, "TEXCOORD_0" : 42, "NORMAL" : 43}, "indices" : 40, "mode" : 4}], "name" : ""}, {"primitives" : [{"attributes" : {"POSITION" : 45, "TEXCOORD_0" : 46, "NORMAL" : 47}, "indices" : 44, "mode" : 4}], "name" : ""}, {"primitives" : [{"attributes" : {"POSITION" : 49, "TEXCOORD_0" : 50, "NORMAL" : 51}, "indices" : 48, "mode" : 4}], "name" : ""}, {"primitives" : [{"attributes" : {"POSITION" : 53, "TEXCOORD_0" : 54, "NORMAL" : 55}, "indices" : 52, "mode" : 4}], "name" : ""}, {"primitives" : [{"attributes" : {"POSITION" : 57, "TEXCOORD_0" : 58, "NORMAL" : 59}, "indices" : 56, "mode" : 4}], "name" : ""}, {"primitives" : [{"attributes" : {"POSITION" : 61, "TEXCOORD_0" : 62, "NORMAL" : 63}, "indices" : 60, "mode" : 4}], "name" : ""}, {"primitives" : [{"attributes" : {"POSITION" : 65, "TEXCOORD_0" : 66, "NORMAL" : 67}, "indices" : 64, "mode" : 4}], "name" : ""}, {"primitives" : [{"attributes" : {"POSITION" : 69, "TEXCOORD_0" : 70, "NORMAL" : 71}, "indices" : 68, "mode" : 4}], "name" : ""}, {"primitives" : [{"attributes" : {"POSITION" : 73, "TEXCOORD_0" : 74, "NORMAL" : 75}, "indices" : 72, "mode" : 4}], "name" : ""}, {"primitives" : [{"attributes" : {"POSITION" : 77, "TEXCOORD_0" : 78, "NORMAL" : 79}, "indices" : 76, "mode" : 4}], "name" : ""}], "nodes" : [{"mesh" : 0, "name" : "Sphere"}, {"mesh" : 1, "name" : "Sphere.001"}, {"mesh" : 2, "name" : "Sphere.002"}, {"mesh" : 3, "name" : "Sphere.004"}, {"mesh" : 4, "name" : "Sphere.005"}, {"mesh" : 5, "name" : "Sphere.006"}, {"mesh" : 6, "name" : "Sphere.003"}, {"mesh" : 7, "name" : "Sphere.007"}, {"mesh" : 8, "name" : "Sphere.008"}, {"mesh" : 9, "name" : "Sphere.009"}, {"mesh" : 10, "name" : "Sphere.010"}, {"mesh" : 11, "name" : "Sphere.011"}, {"mesh" : 12, "name" : "Sphere.012"}, {"mesh" : 13, "name" : "Sphere.013"}, {"mesh" : 14, "name" : "Sphere.014"}, {"mesh" : 15, "name" : "Sphere.015"}, {"mesh" : 16, "name" : "Sphere.016"}, {"mesh" : 17, "name" : "Sphere.017"}, {"mesh" : 18, "name" : "Sphere.018"}, {"mesh" : 19, "name" : "Sphere.019"}], "scene" : 0, "scenes" : [{"nodes" : [0, 1, 2, 3, 4, 5, 6, 7, 8, 9, 10, 11, 12, 13, 14, 15, 16, 17, 18, 19]}]}